<svg width="16" height="17" viewBox="0 0 16 17" fill="none" xmlns="http://www.w3.org/2000/svg">
<path d="M7.9987 13.75C8.15528 13.75 8.30834 13.706 8.43853 13.6236C8.56871 13.5412 8.67018 13.4241 8.7301 13.287C8.79002 13.15 8.8057 12.9992 8.77515 12.8537C8.74461 12.7082 8.66921 12.5746 8.55849 12.4697C8.44777 12.3648 8.30671 12.2933 8.15314 12.2644C7.99958 12.2355 7.8404 12.2503 7.69574 12.3071C7.55108 12.3639 7.42744 12.46 7.34045 12.5833C7.25346 12.7067 7.20703 12.8517 7.20703 13C7.20703 13.1989 7.29044 13.3897 7.43891 13.5303C7.58737 13.671 7.78873 13.75 7.9987 13.75ZM11.957 13.75C12.1136 13.75 12.2667 13.706 12.3969 13.6236C12.527 13.5412 12.6285 13.4241 12.6884 13.287C12.7484 13.15 12.764 12.9992 12.7335 12.8537C12.7029 12.7082 12.6275 12.5746 12.5168 12.4697C12.4061 12.3648 12.265 12.2933 12.1115 12.2644C11.9579 12.2355 11.7987 12.2503 11.6541 12.3071C11.5094 12.3639 11.3858 12.46 11.2988 12.5833C11.2118 12.7067 11.1654 12.8517 11.1654 13C11.1654 13.1989 11.2488 13.3897 11.3972 13.5303C11.5457 13.671 11.7471 13.75 11.957 13.75ZM11.957 10.75C12.1136 10.75 12.2667 10.706 12.3969 10.6236C12.527 10.5412 12.6285 10.4241 12.6884 10.287C12.7484 10.15 12.764 9.99917 12.7335 9.85368C12.7029 9.7082 12.6275 9.57456 12.5168 9.46967C12.4061 9.36478 12.265 9.29335 12.1115 9.26441C11.9579 9.23547 11.7987 9.25032 11.6541 9.30709C11.5094 9.36386 11.3858 9.45998 11.2988 9.58332C11.2118 9.70666 11.1654 9.85166 11.1654 10C11.1654 10.1989 11.2488 10.3897 11.3972 10.5303C11.5457 10.671 11.7471 10.75 11.957 10.75ZM7.9987 10.75C8.15528 10.75 8.30834 10.706 8.43853 10.6236C8.56871 10.5412 8.67018 10.4241 8.7301 10.287C8.79002 10.15 8.8057 9.99917 8.77515 9.85368C8.74461 9.7082 8.66921 9.57456 8.55849 9.46967C8.44777 9.36478 8.30671 9.29335 8.15314 9.26441C7.99958 9.23547 7.8404 9.25032 7.69574 9.30709C7.55108 9.36386 7.42744 9.45998 7.34045 9.58332C7.25346 9.70666 7.20703 9.85166 7.20703 10C7.20703 10.1989 7.29044 10.3897 7.43891 10.5303C7.58737 10.671 7.78873 10.75 7.9987 10.75ZM13.5404 1.75H12.7487V1C12.7487 0.801088 12.6653 0.610322 12.5168 0.46967C12.3684 0.329018 12.167 0.25 11.957 0.25C11.7471 0.25 11.5457 0.329018 11.3972 0.46967C11.2488 0.610322 11.1654 0.801088 11.1654 1V1.75H4.83203V1C4.83203 0.801088 4.74862 0.610322 4.60016 0.46967C4.45169 0.329018 4.25033 0.25 4.04036 0.25C3.8304 0.25 3.62904 0.329018 3.48057 0.46967C3.33211 0.610322 3.2487 0.801088 3.2487 1V1.75H2.45703C1.82714 1.75 1.22305 1.98705 0.777653 2.40901C0.332254 2.83097 0.0820313 3.40326 0.0820312 4V14.5C0.0820313 15.0967 0.332254 15.669 0.777653 16.091C1.22305 16.5129 1.82714 16.75 2.45703 16.75H13.5404C14.1703 16.75 14.7743 16.5129 15.2197 16.091C15.6651 15.669 15.9154 15.0967 15.9154 14.5V4C15.9154 3.40326 15.6651 2.83097 15.2197 2.40901C14.7743 1.98705 14.1703 1.75 13.5404 1.75ZM14.332 14.5C14.332 14.6989 14.2486 14.8897 14.1002 15.0303C13.9517 15.171 13.7503 15.25 13.5404 15.25H2.45703C2.24707 15.25 2.0457 15.171 1.89724 15.0303C1.74877 14.8897 1.66536 14.6989 1.66536 14.5V7.75H14.332V14.5ZM14.332 6.25H1.66536V4C1.66536 3.80109 1.74877 3.61032 1.89724 3.46967C2.0457 3.32902 2.24707 3.25 2.45703 3.25H3.2487V4C3.2487 4.19891 3.33211 4.38968 3.48057 4.53033C3.62904 4.67098 3.8304 4.75 4.04036 4.75C4.25033 4.75 4.45169 4.67098 4.60016 4.53033C4.74862 4.38968 4.83203 4.19891 4.83203 4V3.25H11.1654V4C11.1654 4.19891 11.2488 4.38968 11.3972 4.53033C11.5457 4.67098 11.7471 4.75 11.957 4.75C12.167 4.75 12.3684 4.67098 12.5168 4.53033C12.6653 4.38968 12.7487 4.19891 12.7487 4V3.25H13.5404C13.7503 3.25 13.9517 3.32902 14.1002 3.46967C14.2486 3.61032 14.332 3.80109 14.332 4V6.25ZM4.04036 10.75C4.19694 10.75 4.35 10.706 4.48019 10.6236C4.61038 10.5412 4.71185 10.4241 4.77177 10.287C4.83169 10.15 4.84737 9.99917 4.81682 9.85368C4.78627 9.7082 4.71087 9.57456 4.60016 9.46967C4.48944 9.36478 4.34838 9.29335 4.19481 9.26441C4.04124 9.23547 3.88207 9.25032 3.73741 9.30709C3.59275 9.36386 3.46911 9.45998 3.38212 9.58332C3.29513 9.70666 3.2487 9.85166 3.2487 10C3.2487 10.1989 3.33211 10.3897 3.48057 10.5303C3.62904 10.671 3.8304 10.75 4.04036 10.75ZM4.04036 13.75C4.19694 13.75 4.35 13.706 4.48019 13.6236C4.61038 13.5412 4.71185 13.4241 4.77177 13.287C4.83169 13.15 4.84737 12.9992 4.81682 12.8537C4.78627 12.7082 4.71087 12.5746 4.60016 12.4697C4.48944 12.3648 4.34838 12.2933 4.19481 12.2644C4.04124 12.2355 3.88207 12.2503 3.73741 12.3071C3.59275 12.3639 3.46911 12.46 3.38212 12.5833C3.29513 12.7067 3.2487 12.8517 3.2487 13C3.2487 13.1989 3.33211 13.3897 3.48057 13.5303C3.62904 13.671 3.8304 13.75 4.04036 13.75Z" fill="#313131"/>
</svg>
